<mxfile host="Electron" modified="2024-02-01T21:42:22.272Z" agent="Mozilla/5.0 (Windows NT 10.0; Win64; x64) AppleWebKit/537.36 (KHTML, like Gecko) draw.io/23.0.2 Chrome/120.0.6099.109 Electron/28.1.0 Safari/537.36" etag="dh_Fb_ZH7guDLDUs-Yui" version="23.0.2" type="device">
  <diagram id="R2lEEEUBdFMjLlhIrx00" name="Page-1">
    <mxGraphModel dx="989" dy="589" grid="1" gridSize="10" guides="1" tooltips="1" connect="1" arrows="1" fold="1" page="1" pageScale="1" pageWidth="850" pageHeight="1100" math="0" shadow="0" extFonts="Permanent Marker^https://fonts.googleapis.com/css?family=Permanent+Marker">
      <root>
        <mxCell id="0" />
        <mxCell id="1" parent="0" />
        <mxCell id="cO6ZBfTlLZL4oM4n66TC-6" value="0...N" style="edgeStyle=orthogonalEdgeStyle;rounded=0;orthogonalLoop=1;jettySize=auto;html=1;exitX=0.5;exitY=1;exitDx=0;exitDy=0;entryX=0.5;entryY=0;entryDx=0;entryDy=0;endArrow=none;endFill=0;" edge="1" parent="1" source="cO6ZBfTlLZL4oM4n66TC-1" target="cO6ZBfTlLZL4oM4n66TC-4">
          <mxGeometry relative="1" as="geometry" />
        </mxCell>
        <mxCell id="cO6ZBfTlLZL4oM4n66TC-1" value="Usuarios" style="rounded=0;whiteSpace=wrap;html=1;" vertex="1" parent="1">
          <mxGeometry x="380" y="230" width="120" height="60" as="geometry" />
        </mxCell>
        <mxCell id="cO6ZBfTlLZL4oM4n66TC-8" value="0...N" style="edgeStyle=orthogonalEdgeStyle;rounded=0;orthogonalLoop=1;jettySize=auto;html=1;exitX=0.5;exitY=1;exitDx=0;exitDy=0;entryX=0.5;entryY=0;entryDx=0;entryDy=0;endArrow=none;endFill=0;" edge="1" parent="1" source="cO6ZBfTlLZL4oM4n66TC-2" target="cO6ZBfTlLZL4oM4n66TC-5">
          <mxGeometry relative="1" as="geometry" />
        </mxCell>
        <mxCell id="cO6ZBfTlLZL4oM4n66TC-2" value="Roles" style="rounded=0;whiteSpace=wrap;html=1;" vertex="1" parent="1">
          <mxGeometry x="380" y="460" width="120" height="60" as="geometry" />
        </mxCell>
        <mxCell id="cO6ZBfTlLZL4oM4n66TC-3" value="Permisos" style="rounded=0;whiteSpace=wrap;html=1;" vertex="1" parent="1">
          <mxGeometry x="380" y="700" width="120" height="60" as="geometry" />
        </mxCell>
        <mxCell id="cO6ZBfTlLZL4oM4n66TC-7" value="1...N" style="edgeStyle=orthogonalEdgeStyle;rounded=0;orthogonalLoop=1;jettySize=auto;html=1;exitX=0.5;exitY=1;exitDx=0;exitDy=0;entryX=0.5;entryY=0;entryDx=0;entryDy=0;endArrow=none;endFill=0;" edge="1" parent="1" source="cO6ZBfTlLZL4oM4n66TC-4" target="cO6ZBfTlLZL4oM4n66TC-2">
          <mxGeometry relative="1" as="geometry" />
        </mxCell>
        <mxCell id="cO6ZBfTlLZL4oM4n66TC-4" value="es" style="rhombus;whiteSpace=wrap;html=1;" vertex="1" parent="1">
          <mxGeometry x="400" y="330" width="80" height="80" as="geometry" />
        </mxCell>
        <mxCell id="cO6ZBfTlLZL4oM4n66TC-9" style="edgeStyle=orthogonalEdgeStyle;rounded=0;orthogonalLoop=1;jettySize=auto;html=1;exitX=0.5;exitY=1;exitDx=0;exitDy=0;entryX=0.5;entryY=0;entryDx=0;entryDy=0;endArrow=none;endFill=0;" edge="1" parent="1" source="cO6ZBfTlLZL4oM4n66TC-5" target="cO6ZBfTlLZL4oM4n66TC-3">
          <mxGeometry relative="1" as="geometry" />
        </mxCell>
        <mxCell id="cO6ZBfTlLZL4oM4n66TC-10" value="1...N" style="edgeStyle=orthogonalEdgeStyle;rounded=0;orthogonalLoop=1;jettySize=auto;html=1;endArrow=none;endFill=0;" edge="1" parent="1" source="cO6ZBfTlLZL4oM4n66TC-5" target="cO6ZBfTlLZL4oM4n66TC-3">
          <mxGeometry relative="1" as="geometry" />
        </mxCell>
        <mxCell id="cO6ZBfTlLZL4oM4n66TC-5" value="tiene" style="rhombus;whiteSpace=wrap;html=1;" vertex="1" parent="1">
          <mxGeometry x="400" y="570" width="80" height="80" as="geometry" />
        </mxCell>
      </root>
    </mxGraphModel>
  </diagram>
</mxfile>
